<svg width="512" height="512" viewBox="0 0 512 512" fill="none" xmlns="http://www.w3.org/2000/svg">
  <rect width="512" height="512" rx="128" fill="#10b981"/>
  <path d="M256 128C179.2 128 116 191.2 116 268C116 344.8 179.2 408 256 408C332.8 408 396 344.8 396 268C396 191.2 332.8 128 256 128ZM256 368C201.6 368 156 322.4 156 268C156 213.6 201.6 168 256 168C310.4 168 356 213.6 356 268C356 322.4 310.4 368 256 368Z" fill="white"/>
  <path d="M256 188C212.8 188 176 224.8 176 268C176 311.2 212.8 348 256 348C299.2 348 336 311.2 336 268C336 224.8 299.2 188 256 188ZM276 308H236V228H276V308Z" fill="white"/>
  <circle cx="360" cy="152" r="32" fill="#fbbf24"/>
</svg>
